<?xml version="1.0" encoding="UTF-8" standalone="no"?>
<svg
   xmlns:dc="http://purl.org/dc/elements/1.1/"
   xmlns:cc="http://creativecommons.org/ns#"
   xmlns:rdf="http://www.w3.org/1999/02/22-rdf-syntax-ns#"
   xmlns:svg="http://www.w3.org/2000/svg"
   xmlns="http://www.w3.org/2000/svg"
   xmlns:sodipodi="http://sodipodi.sourceforge.net/DTD/sodipodi-0.dtd"
   xmlns:inkscape="http://www.inkscape.org/namespaces/inkscape"
   viewBox="0 0 48 48"
   version="1.1"
   id="svg28"
   sodipodi:docname="geany.svg"
   width="48"
   height="48"
   inkscape:version="1.0.1 (3bc2e813f5, 2020-09-07)">
  <metadata
     id="metadata34">
    <rdf:RDF>
      <cc:Work
         rdf:about="">
        <dc:format>image/svg+xml</dc:format>
        <dc:type
           rdf:resource="http://purl.org/dc/dcmitype/StillImage" />
        <dc:title></dc:title>
      </cc:Work>
    </rdf:RDF>
  </metadata>
  <defs
     id="defs32" />
  <sodipodi:namedview
     pagecolor="#ffffff"
     bordercolor="#666666"
     borderopacity="1"
     objecttolerance="10"
     gridtolerance="10"
     guidetolerance="10"
     inkscape:pageopacity="0"
     inkscape:pageshadow="2"
     inkscape:window-width="1366"
     inkscape:window-height="741"
     id="namedview30"
     showgrid="false"
     fit-margin-top="0"
     fit-margin-left="0"
     fit-margin-right="0"
     fit-margin-bottom="0"
     inkscape:zoom="6.6944445"
     inkscape:cx="13.18655"
     inkscape:cy="26.937382"
     inkscape:window-x="0"
     inkscape:window-y="0"
     inkscape:window-maximized="1"
     inkscape:current-layer="svg28"
     inkscape:document-rotation="0" />
  <g
     id="g48"
     transform="matrix(1.7945267,0,0,1.7945267,6.054733,-8.5799996e-8)">
    <path
       fill="#88c9f9"
       d="m 3.444,12.935 c 0,1.448 -0.734,2.622 -1.639,2.622 C 0.9,15.558 0,14.448 0,13 c 0,-1.935 0.501,-2.687 1.806,-2.687 0.905,0 1.638,1.174 1.638,2.622 z M 20,13 c 0,1.448 -0.9,2.558 -1.806,2.558 -0.905,0 -1.639,-1.174 -1.639,-2.622 0,-1.448 0.734,-2.623 1.639,-2.623 1.352,0 1.806,0.752 1.806,2.687 z"
       id="path4"
       sodipodi:nodetypes="scssssssss" />
    <path
       fill="#88c9f9"
       d="M 1.478,13.96 C 1.478,8.371 3,2 10,2 17,2 18.522,8.371 18.522,13.96 18.522,19 16,24.08 10,24.08 4,24.08 1.478,19 1.478,13.96 Z"
       id="path6" />
    <path
       fill="#662113"
       d="m 13.703,13.908 h -0.145 c -0.459,0 -0.835,-0.376 -0.835,-0.835 V 12.02 c 0,-0.459 0.376,-0.835 0.835,-0.835 h 0.145 c 0.459,0 0.835,0.376 0.835,0.835 v 1.053 c 0,0.459 -0.375,0.835 -0.835,0.835 z m -7.406,0 h 0.145 c 0.459,0 0.835,-0.376 0.835,-0.835 V 12.02 c 0,-0.459 -0.376,-0.835 -0.835,-0.835 H 6.297 c -0.459,0 -0.835,0.376 -0.835,0.835 v 1.053 c 0,0.459 0.375,0.835 0.835,0.835 z"
       id="path8" />
    <path
       fill="#226699"
       d="m 10.007,20.802 c 2.754,0 3.6,-0.706 3.741,-0.848 0.256,-0.256 0.256,-0.671 0,-0.927 -0.248,-0.248 -0.645,-0.255 -0.902,-0.024 -0.052,0.038 -0.721,0.487 -2.839,0.487 -2.2,0 -2.836,-0.485 -2.842,-0.49 -0.255,-0.255 -0.656,-0.243 -0.913,0.013 -0.256,0.256 -0.242,0.684 0.014,0.94 0.141,0.143 0.987,0.849 3.741,0.849 z"
       id="path10" />
    <path
       fill="#55acee"
       d="M 10.75,16.75 H 9.25 C 8.837,16.75 8.5,16.413 8.5,16 c 0,-0.413 0.337,-0.75 0.75,-0.75 h 1.5 c 0.413,0 0.75,0.337 0.75,0.75 0,0.413 -0.337,0.75 -0.75,0.75 z"
       id="path12" />
    <path
       fill="#744eaa"
       d="m 10,5.934 c 0,0 7.149,1.858 8.245,5.204 C 18.723,10.117 19,7.881 19,6.62 19,2.781 16,0 11.125,0 H 8.875 C 4.75,0 1,2.781 1,6.62 1,7.882 1.277,10.284 1.754,11.304 2.851,7.957 10,5.934 10,5.934 Z"
       id="path14"
       sodipodi:nodetypes="ccsssscc" />
    <g
       fill="#cbb7ea"
       id="g20"
       transform="translate(-8,-3)">
      <path
         d="M 26.985,10.177 C 25.589,9.062 23.941,8.14 22.373,7.618 22.008,7.496 21.618,7.694 21.497,8.055 c -0.121,0.363 0.075,0.755 0.438,0.876 1.666,0.555 3.495,1.666 4.882,2.935 0.09,-0.623 0.151,-1.328 0.168,-1.689 z M 9.117,11.311 C 11.124,9.875 17.84,5.552 25.515,5.492 25.042,4.947 24.531,4.555 23.936,4.184 17.23,4.682 11.508,8.023 9.005,9.706 c 0.01,0.455 0.046,1.013 0.112,1.605 z"
         id="path16" />
      <path
         d="m 26.421,6.89 c -0.028,-0.004 -0.084,0 -0.113,0 -2.835,0 -5.703,0.71 -8.528,2.108 C 17.919,8.956 18,8.934 18,8.934 c 0,0 0.815,0.212 1.937,0.621 2.126,-0.845 4.263,-1.28 6.371,-1.28 0.203,0 0.404,0.014 0.573,0.052 C 26.806,7.908 26.633,7.316 26.421,6.89 Z M 9.188,8.036 C 11.665,6.45 16.289,4.164 21.53,3.252 20.734,3.016 19.983,3 19.125,3 H 17.36 C 14.635,4.059 12.208,4.857 10.338,5.887 9.802,6.565 9.404,7.201 9.188,8.036 Z"
         id="path18" />
    </g>
    <path
       fill="#ffd983"
       d="m 10.112,2.887 c 0.887,0 1.612,0.726 1.612,1.612 V 6.15 c 0,0.887 -0.726,1.612 -1.612,1.612 C 9.225,7.762 8.5,7.036 8.5,6.15 V 4.499 c 0,-0.887 0.726,-1.612 1.612,-1.612 z"
       id="path22" />
    <path
       fill="#ffac33"
       d="m 10.112,3.89 c 0.484,0 0.881,0.396 0.881,0.881 v 1.108 c 0,0.484 -0.396,0.881 -0.881,0.881 C 9.628,6.76 9.231,6.364 9.231,5.879 V 4.771 C 9.232,4.286 9.628,3.89 10.112,3.89 Z"
       id="path24" />
    <path
       d="m 18.546,17.159 c 0.032,-0.204 -0.107,-0.396 -0.312,-0.428 -0.209,-0.039 -0.396,0.108 -0.428,0.312 -0.01,0.064 -1.072,6.251 -7.231,6.625 0.111,-0.968 -0.078,-1.805 -0.088,-1.846 -0.063,-0.27 -0.334,-0.44 -0.602,-0.372 -0.269,0.063 -0.435,0.332 -0.372,0.601 0.002,0.009 0.178,0.784 0.052,1.627 -6.269,-0.28 -7.328,-6.37 -7.37,-6.636 -0.033,-0.204 -0.224,-0.344 -0.429,-0.312 -0.204,0.032 -0.344,0.224 -0.312,0.428 0.008,0.049 0.567,3.305 3.133,5.45 0.007,0.017 0.026,0.04 0.07,0.078 0.749,0.646 3.923,3.988 5.34,4.061 v 0.001 l 0.004,-0.001 0.004,0.001 v -0.001 c 1.416,-0.073 4.591,-3.415 5.34,-4.061 0.043,-0.037 0.062,-0.06 0.07,-0.077 2.564,-2.144 3.124,-5.401 3.131,-5.45 z"
       id="path26" />
  </g>
</svg>
